#!OML:ASF G:\ViconDB\ViconDB\414\test\team2\shane.ASF
:FULLY-SPECIFIED
:DEGREES
222
root 3.85652 16.6842 2.31278 -8.65442 1.35645 -3.2618
lowerback 7.95355 -5.54363 -1.73711
upperback 3.43509 -7.46519 5.73033
thorax 0.146028 -3.85149 7.48173
lowerneck -18.6145 -0.286507 -7.15178
upperneck 27.9704 0.264978 5.16767
head 12.3119 0.019478 3.2296
rclavicle 5.30755e-014 2.22639e-014
rhumerus -49.9527 2.39005 -80.3024
rradius 30.3575
rwrist 30.9892
rhand -28.5907 -14.3245
rfingers 7.12502
rthumb -1.95644 -44.2952
lclavicle -3.57812e-014 -1.59028e-015
lhumerus -10.6138 -21.8635 91.68
lradius 31.0718
lwrist -14.0072
lhand -40.6641 6.24919
lfingers 7.12502
lthumb -13.6079 35.7844
rfemur -30.3375 -18.936 24.5152
rtibia 36.9213
rfoot 3.3073 8.06471
rtoes -13.0224
lfemur 32.5924 5.41017 -14.0695
ltibia -4.77083e-014
lfoot -17.0451 -16.4995
ltoes -18.1754
223
root 3.8484 16.6145 2.47911 -8.55735 1.62246 -3.29175
lowerback 7.99179 -5.61752 -1.73489
upperback 3.31271 -7.55746 5.80878
thorax 0.0215624 -3.89326 7.58137
lowerneck -18.4921 -0.279396 -6.91677
upperneck 27.8033 0.224692 5.06074
head 12.2241 0.0148959 3.13509
rclavicle -3.926e-014 3.97569e-014
rhumerus -50.9244 2.44928 -80.1053
rradius 30.5559
rwrist 30.2085
rhand -28.6895 -14.3861
rfingers 7.12502
rthumb -2.05188 -44.356
lclavicle -3.926e-014 3.97569e-014
lhumerus -10.0578 -23.1216 91.3192
lradius 31.4302
lwrist -13.33
lhand -40.4393 6.47011
lfingers 7.12502
lthumb -13.3913 36.0197
rfemur -30.4097 -19.2692 24.7252
rtibia 37.2793
rfoot 3.81745 7.19563
rtoes -12.638
lfemur 33.1778 5.09483 -13.9738
ltibia -2.8625e-014
lfoot -18.0001 -16.5441
ltoes -17.9049
224
root 3.83786 16.5353 2.65241 -8.50908 1.95312 -3.31806
lowerback 7.90714 -5.64119 -1.63487
upperback 3.25202 -7.57933 5.88678
thorax 0.00582261 -3.90193 7.60343
lowerneck -18.4671 -0.370443 -6.95888
upperneck 27.7202 0.109418 5.0564
head 12.1951 -0.0398234 3.1202
rclavicle -6.2319e-014 1.90833e-014
rhumerus -51.3998 1.7636 -79.3173
rradius 30.7138
rwrist 31.1377
rhand -28.5111 -14.2241
rfingers 7.12502
rthumb -1.87953 -44.1956
lclavicle -6.2319e-014 1.90833e-014
lhumerus -9.30485 -22.8467 91.1967
lradius 31.1466
lwrist -14.6925
lhand -40.5796 5.90618
lfingers 7.12502
lthumb -13.5265 35.4469
rfemur -30.2763 -19.6087 24.8155
rtibia 37.8256
rfoot 4.20913 6.98104
rtoes -12.5292
lfemur 33.8282 4.73905 -13.9406
ltibia -9.54166e-014
lfoot -19.1348 -16.3465
ltoes -17.7733
225
root 3.83021 16.4508 2.82961 -8.38664 2.36107 -3.59094
lowerback 7.75314 -5.71974 -1.25532
upperback 3.16522 -7.65327 6.02426
thorax -0.0205116 -3.93263 7.52859
lowerneck -18.5965 -0.503314 -7.10017
upperneck 27.7307 -0.102325 5.30546
head 12.2409 -0.115078 3.20942
rclavicle -5.36719e-014 5.24792e-014
rhumerus -51.805 1.26383 -78.9376
rradius 30.5889
rwrist 30.878
rhand -28.7168 -14.2243
rfingers 7.12502
rthumb -2.07819 -44.1939
lclavicle -5.36719e-014 5.24792e-014
lhumerus -8.72728 -23.458 91.0294
lradius 31.2989
lwrist -14.5808
lhand -40.8332 5.91062
lfingers 7.12502
lthumb -13.7709 35.4349
rfemur -30.0852 -19.8632 25.0586
rtibia 38.5012
rfoot 4.88394 7.24874
rtoes -13.3786
lfemur 34.4167 4.28885 -13.6989
ltibia 3.18055e-015
lfoot -20.3985 -15.9488
ltoes -18.1091
226
root 3.81966 16.3705 3.01071 -8.29858 2.95226 -3.74305
lowerback 7.63445 -5.8444 -1.1604
upperback 3.07712 -7.81067 6.14697
thorax -0.0196902 -4.01062 7.60517
lowerneck -18.6679 -0.5701 -6.82099
upperneck 27.6963 -0.199659 5.03283
head 12.2503 -0.163321 3.04169
rclavicle 1.12015e-013 -1.59028e-014
rhumerus -52.0522 1.48122 -78.9484
rradius 30.1804
rwrist 30.5349
rhand -29.0618 -14.5418
rfingers 7.12502
rthumb -2.41144 -44.5079
lclavicle 1.12015e-013 -1.59028e-014
lhumerus -8.27339 -23.1076 91.006
lradius 31.3304
lwrist -15.7088
lhand -40.4734 5.59343
lfingers 7.12502
lthumb -13.4241 35.1409
rfemur -29.6999 -20.0917 24.9971
rtibia 39.302
rfoot 5.14245 7.91655
rtoes -10.1884
lfemur 34.9968 3.66069 -13.5788
ltibia 7.63333e-014
lfoot -21.2659 -15.8068
ltoes -17.9076
